<svg width="685" height="685" viewBox="0 0 685 685" fill="none" xmlns="http://www.w3.org/2000/svg">
<path d="M342.318 20.0227C520.65 20.0227 665.218 164.591 665.218 342.925C665.218 521.257 520.65 665.825 342.318 665.825C163.984 665.825 19.4156 521.257 19.4156 342.925C19.4156 164.591 163.984 20.0227 342.318 20.0227Z" stroke="#0FA958" stroke-width="38.1063"/>
<path d="M608.281 342.924C608.281 196.035 489.205 76.9587 342.318 76.9587C195.429 76.9587 76.3523 196.035 76.3523 342.924C76.3523 489.811 195.429 608.888 342.318 608.888C489.205 608.888 608.281 489.811 608.281 342.924Z" fill="#0FA958"/>
<path d="M239.114 375.32C239.114 381.439 240.194 387.191 242.357 392.575C244.52 397.714 247.404 402.241 251.009 406.158C254.855 410.072 259.301 413.131 264.347 415.335C269.635 417.537 275.282 418.639 281.291 418.639C287.059 418.639 292.466 417.537 297.513 415.335C302.8 413.131 307.246 410.072 310.851 406.158C314.697 402.241 317.701 397.714 319.863 392.575C322.267 387.435 323.469 381.928 323.469 376.054C323.469 370.181 322.267 364.675 319.863 359.535C317.701 354.151 314.697 349.501 310.851 345.585C307.246 341.67 302.8 338.611 297.513 336.407C292.466 334.205 287.059 333.104 281.291 333.104C275.282 333.104 269.635 334.205 264.347 336.407C259.301 338.611 254.855 341.67 251.009 345.585C247.404 349.501 244.52 354.028 242.357 359.168C240.194 364.063 239.114 369.447 239.114 375.32ZM321.306 281.71H386.916V470.033H321.306V449.108C307.366 466.974 288.5 475.906 264.709 475.906C251.249 475.906 238.872 473.458 227.577 468.565C216.282 463.425 206.428 456.327 198.016 447.273C189.605 438.217 182.996 427.571 178.188 415.335C173.622 403.097 171.339 389.76 171.339 375.32C171.339 361.861 173.622 349.133 178.188 337.141C182.756 324.905 189.124 314.26 197.296 305.204C205.466 296.15 215.2 289.051 226.495 283.912C237.79 278.529 250.289 275.836 263.987 275.836C287.059 275.836 306.165 284.035 321.306 300.432V281.71ZM471.333 281.71V470.033H406.084V281.71H471.333ZM401.758 209.391C401.758 204.252 402.719 199.48 404.642 195.074C406.565 190.424 409.208 186.386 412.573 182.959C415.937 179.534 419.783 176.841 424.11 174.884C428.676 172.925 433.482 171.946 438.529 171.946C443.575 171.946 448.261 172.925 452.587 174.884C457.155 176.841 461.12 179.534 464.484 182.959C467.849 186.386 470.493 190.424 472.415 195.074C474.338 199.48 475.299 204.252 475.299 209.391C475.299 214.531 474.338 219.426 472.415 224.074C470.493 228.48 467.849 232.396 464.484 235.823C461.12 239.248 457.155 241.941 452.587 243.899C448.261 245.856 443.575 246.835 438.529 246.835C433.482 246.835 428.676 245.856 424.11 243.899C419.783 241.941 415.937 239.248 412.573 235.823C409.208 232.396 406.565 228.48 404.642 224.074C402.719 219.426 401.758 214.531 401.758 209.391Z" fill="white"/>
</svg>
