<svg width="45" height="45" viewBox="0 0 45 45" fill="none" xmlns="http://www.w3.org/2000/svg">
<path d="M36.9226 19.1516V14.9016C36.9226 13.7745 36.4661 12.6935 35.6534 11.8964C34.8407 11.0994 33.7385 10.6516 32.5893 10.6516H15.2559C14.1067 10.6516 13.0045 11.0994 12.1918 11.8964C11.3792 12.6935 10.9226 13.7745 10.9226 14.9016V31.9016C10.9226 33.0288 11.3792 34.1098 12.1918 34.9068C13.0045 35.7039 14.1067 36.1516 15.2559 36.1516H19.5893" stroke="#44924C" stroke-width="3" stroke-linecap="round" stroke-linejoin="round"/>
<path d="M2.25586 2.15164V2.17289M10.9225 2.15164V2.17289M19.5892 2.15164V2.17289M28.2559 2.15164V2.17289M2.25586 10.6516V10.6729M2.25586 19.1516V19.1729M2.25586 27.6516V27.6729M23.9225 23.4016L43.4225 29.7766L34.7559 34.0266L30.4225 42.5266L23.9225 23.4016Z" stroke="#44924C" stroke-width="3" stroke-linecap="round" stroke-linejoin="round"/>
</svg>
